<svg width="340" height="340" viewBox="0 0 340 340" fill="none"
    xmlns="http://www.w3.org/2000/svg">
    <g clipPath="url(#clip0)">
        <path d="M75.974 339.832C52.536 339.832 29.096 339.666 5.66204 339.971C0.939039 340.032 -0.00696158 339.014 3.84237e-05 334.302C0.168038 222.919 0.130038 111.536 0.130038 0.151947C111.262 0.151947 222.395 0.201947 333.527 -5.30722e-05C338.938 -0.0100531 340.01 1.06195 340 6.47195C339.796 115.485 339.796 224.499 340 333.512C340.01 338.922 338.952 340.082 333.525 339.995C309.83 339.615 286.125 339.832 262.424 339.832C260.221 328.213 257.661 316.648 255.912 304.962C254.043 292.476 247.484 284.349 235.688 280.136C231.743 278.727 226.801 277.916 224.292 275.081C216.074 265.798 205.578 260.124 195.02 254.394C191.963 252.735 191.141 250.048 191.679 247.142C192.203 244.312 195.98 244.412 196.796 245.24C203.701 252.253 209.256 247.804 215.157 243.804C216.283 243.041 218.252 243.586 219.817 243.397C229.243 242.26 238.545 240.594 247.253 236.577C254.719 233.133 258.681 227.672 257.694 219.072C254.442 190.736 256.595 162.31 256.41 133.922C256.314 119.205 256.79 104.486 254.476 89.8339C249.343 57.3409 232.152 38.6419 201.136 32.4289C197.276 31.6559 193.334 31.2799 189.421 30.7889C145.613 25.2999 109.742 45.707 95.296 85.5779C79.432 129.362 81.249 173.821 92.506 218.341C94.517 226.295 100.006 230.721 107.225 233.54C118.317 237.872 129.877 240.274 141.628 241.922C144.045 242.261 147.885 241.409 147.886 244.965C147.886 248.37 147.616 252.708 143.447 254.298C136.938 256.78 131.679 261.214 126.042 265.016C116.637 271.358 108.467 279.262 97.187 283.088C89.558 285.676 85.047 292.622 83.549 301.15C81.273 314.087 78.522 326.942 75.974 339.832Z" fill="#80FFC5" />
        <path d="M75.9741 339.832C78.5221 326.942 81.2731 314.087 83.5461 301.148C85.0441 292.62 89.5551 285.674 97.1841 283.086C108.464 279.26 116.634 271.356 126.039 265.014C131.677 261.212 136.935 256.778 143.444 254.296C147.613 252.707 147.884 248.368 147.883 244.963C147.883 241.407 144.043 242.259 141.625 241.92C129.874 240.271 118.314 237.87 107.222 233.538C100.003 230.718 94.5141 226.293 92.5031 218.339C81.2461 173.819 79.4291 129.36 95.2931 85.576C109.739 45.706 145.61 25.298 189.418 30.787C193.331 31.277 197.273 31.653 201.133 32.427C232.149 38.64 249.34 57.339 254.473 89.832C256.788 104.484 256.312 119.203 256.407 133.92C256.592 162.308 254.439 190.734 257.691 219.07C258.678 227.67 254.716 233.131 247.25 236.575C238.542 240.592 229.24 242.258 219.814 243.395C218.25 243.584 216.28 243.039 215.154 243.802C209.253 247.802 203.698 252.252 196.793 245.238C195.978 244.41 192.2 244.31 191.676 247.14C191.138 250.046 191.96 252.733 195.017 254.392C205.575 260.122 216.071 265.796 224.289 275.079C226.798 277.913 231.74 278.724 235.685 280.134C247.481 284.347 254.04 292.475 255.909 304.96C257.659 316.646 260.218 328.212 262.421 339.83C259.261 339.83 256.101 339.83 252.941 339.83C252.255 325.897 248.586 312.467 245.804 298.904C244.819 294.099 241.168 290.626 236.651 288.659C230.409 285.94 224.096 283.32 217.645 281.161C210.638 278.815 198.966 287.393 198.9 294.61C198.852 299.86 198.91 305.111 198.863 310.361C198.836 313.383 198.558 316.45 194.486 316.425C190.839 316.403 190.62 313.558 190.469 310.847C190.411 309.8 190.436 308.748 190.421 307.698C190.21 292.795 190.365 293.117 176.705 299.726C170.934 302.518 168.656 305.835 169.068 312.277C169.652 321.427 169.204 330.643 169.197 339.831C166.564 339.831 163.93 339.831 161.297 339.831C161.226 327.728 161.117 315.626 161.098 303.523C161.087 296.578 154.741 295.234 150.788 294.792C145.61 294.213 148.835 299.852 148.239 302.653C147.649 305.425 148.161 308.419 148.047 311.309C147.934 314.175 147.096 316.655 143.535 316.451C140.479 316.275 139.699 313.998 139.658 311.46C139.562 305.409 139.627 299.355 139.56 293.303C139.534 291.006 140.002 288.547 137.343 287.07C130.099 283.048 123.26 277.657 114.279 283.401C111.02 285.486 106.974 286.313 103.354 287.869C98.3171 290.034 93.9301 293.357 92.7241 298.807C89.7251 312.367 86.4421 325.904 85.4551 339.83C82.2941 339.832 79.1341 339.832 75.9741 339.832ZM210.269 120.247C203.959 119.093 198.26 120.958 192.957 124.093C190.43 125.587 188.103 127.217 184.987 126.714C189.198 120.252 195.879 118.071 202.886 116.879C207.577 116.081 208.542 114.749 205.955 110.382C198.757 98.234 188.534 89.54 176.429 82.646C172.696 80.52 170.005 80.913 166.45 83.213C149.442 94.214 131.784 104.194 112.911 111.546C104.842 114.69 102.439 118.942 104.914 126.723C105.397 126.652 106.066 126.762 106.337 126.484C123.796 108.616 155.054 114.61 164.202 138.712C165.447 141.991 167.468 142.21 170.252 142.268C173.115 142.328 174.975 141.812 176.291 138.708C177.813 135.116 178.338 130.234 183.725 129.635C184.326 133.529 180.27 135.683 180.115 139.294L179.953 139.726C179.149 142.178 178.036 144.575 177.591 147.09C174.112 166.774 193.13 186.051 212.017 182.085C214.897 182.524 217.63 182.234 220.065 180.464C233.516 175.634 241.049 164.212 240.462 149.538C239.928 136.183 231.234 125.266 218.179 121.557C215.76 119.811 213.015 120.028 210.269 120.247ZM173.769 147.12C173.942 145.959 173.393 145.588 172.317 145.796C171.308 145.807 170.299 145.817 169.289 145.828C166.737 145.259 166.102 146.569 166.325 148.8C167.495 160.536 162.425 169.859 154.911 178.232C137.659 190.307 120.881 189.32 104.569 175.206C103.654 207.352 130.87 235.65 161.681 235.407C172.414 235.322 183.332 237.192 193.853 234.007C198.673 232.547 204.491 231.346 205.48 224.897C207.193 213.725 208.662 202.516 210.157 191.312C210.468 188.984 210.73 187.187 207.105 186.402C182.926 181.165 174.344 170.839 173.769 147.12ZM97.2401 109.462C100.877 110.143 103.193 108.755 105.577 107.769C126.276 99.205 145.975 88.696 164.809 76.621C169.069 73.89 172.373 73.376 177.019 75.797C192.809 84.025 206.028 94.696 213.692 111.243C214.798 113.632 215.894 116.268 218.609 117.141C225.064 119.217 230.3 122.946 234.735 127.992C237.157 130.748 238.82 129.756 239.422 126.571C239.906 124.009 240.318 121.367 240.242 118.776C239.755 101.974 238.511 85.271 234.266 68.892C231.014 56.344 222.948 47.915 210.961 44.757C193.583 40.18 175.507 40.031 157.729 41.704C146.27 42.782 135.28 46.77 125.688 53.931C107.225 67.71 100.235 87.174 97.2401 109.462ZM162.988 151.168C162.897 133.606 148.98 119.813 131.354 119.819C113.519 119.825 100.012 133.543 100.153 151.507C100.292 169.221 114.385 183.352 131.692 183.13C149.094 182.908 163.078 168.626 162.988 151.168ZM186.6 256.429C186.229 243.782 182.144 241.418 161.553 241.937C156.581 242.062 151.785 249.571 151.916 257.025C152.108 267.956 160.658 278.026 169.574 277.823C178.398 277.622 186.908 266.929 186.6 256.429ZM249.467 184.324C244.992 187.195 241.417 188.619 240.21 193.045C237.249 203.903 231.582 213.271 223.751 221.36C220.573 224.643 219.138 228.985 217.149 232.968C215.485 236.299 217.248 237.475 220.299 236.886C229.032 235.202 238.031 234.511 245.919 229.65C249.354 227.534 252.005 224.944 251.241 220.832C249.068 209.151 250.253 197.302 249.467 184.324ZM127.011 231.45C121.074 225.698 115.078 220.773 110.333 214.561C105.153 207.779 101.429 200.452 99.4771 192.177C98.9551 189.965 97.5881 187.901 95.2951 188.271C92.3321 188.749 93.3421 191.596 93.6281 193.446C94.2641 197.57 95.3101 201.631 96.1461 205.726C99.9321 224.272 106.82 230.145 127.011 231.45ZM127.577 273.567C140.569 280.42 152.97 286.962 165.371 293.504C163.968 289.088 161.565 286.048 159.042 283.11C156.476 280.122 153.548 277.418 151.201 274.274C140.53 259.98 144.3 262.37 130.534 270.895C129.714 271.403 129.073 272.199 127.577 273.567ZM173.794 293.099C186.036 286.683 198.278 280.268 211.481 273.348C207.311 270.472 204.31 268.781 201.767 266.564C197.549 262.889 194.432 263.732 191.721 268.236C186.555 276.819 178.534 283.107 173.794 293.099ZM212.254 224.982C219.183 213.343 223.921 200.693 228.444 187.955C229.066 186.204 229.584 184.194 227.808 182.902C226.078 181.642 224.311 182.872 222.654 183.596C219.406 185.015 216.998 186.811 216.56 190.921C215.347 202.298 213.718 213.631 212.254 224.982ZM244.179 78.407C244.165 89.904 246.546 101.162 246.734 112.63C246.885 121.847 245.493 130.899 245.11 140.04C245.02 142.194 244.215 145.754 247.318 145.863C250.591 145.978 249.715 142.395 249.733 140.264C249.835 128.201 250.244 116.112 249.608 104.081C249.146 95.365 247.771 86.605 244.179 78.407ZM98.0661 130.995C98.0661 128.606 98.1551 126.773 98.0421 124.951C97.9191 122.958 98.5711 120.105 95.9361 119.693C93.2381 119.272 92.7641 122.199 92.4941 124.089C91.6101 130.267 91.0281 136.49 90.4451 142.707C90.2941 144.317 90.7841 145.96 92.6131 146.411C94.8791 146.969 95.8551 145.494 96.5201 143.581C98.0061 139.303 98.2581 134.899 98.0661 130.995ZM94.3231 153.351C94.6111 161.83 90.8191 170.778 96.3481 178.718C97.5931 170.095 98.0471 161.551 94.3231 153.351ZM245.313 153.799C242.145 162.023 241.977 170.42 243.036 179.84C247.211 173.968 247.898 166.572 245.313 153.799Z" fill="#363837" />
        <path d="M169.199 339.832C169.206 330.644 169.654 321.428 169.07 312.278C168.659 305.836 170.937 302.519 176.707 299.727C190.368 293.118 190.212 292.796 190.423 307.699C190.438 308.749 190.413 309.801 190.471 310.848C190.622 313.559 190.841 316.404 194.488 316.426C198.56 316.451 198.838 313.384 198.865 310.362C198.912 305.112 198.854 299.861 198.902 294.611C198.968 287.395 210.64 278.817 217.647 281.162C224.098 283.322 230.411 285.941 236.653 288.66C241.17 290.627 244.82 294.1 245.806 298.905C248.587 312.468 252.257 325.897 252.943 339.831C247.676 339.831 242.409 339.831 237.142 339.831C236.796 333.583 234.743 327.524 235.274 321.157C235.516 318.247 234.296 315.949 230.821 316.056C227.567 316.156 227.131 318.629 227.156 321.051C227.221 327.312 227.48 333.571 227.662 339.831C208.174 339.832 188.686 339.832 169.199 339.832ZM194.23 328.836C196.318 329.004 198.076 328.159 198.381 326.139C198.761 323.631 197.133 322.338 194.643 322.284C192.556 322.238 191.037 323.126 190.907 325.344C190.779 327.544 192.114 328.636 194.23 328.836ZM180.26 318.913C179.962 317.272 178.846 316.113 176.744 316C174.718 315.891 172.983 316.684 172.703 318.714C172.347 321.297 174.2 322.384 176.512 322.446C178.529 322.5 179.908 321.489 180.26 318.913Z" fill="#42B6F5" />
        <path d="M85.4541 339.832C86.4411 325.906 89.7241 312.368 92.7231 298.809C93.9291 293.359 98.3161 290.036 103.353 287.871C106.973 286.315 111.019 285.488 114.278 283.403C123.259 277.659 130.098 283.05 137.342 287.072C140.001 288.548 139.533 291.008 139.559 293.305C139.626 299.357 139.561 305.411 139.657 311.462C139.697 314 140.477 316.277 143.534 316.453C147.096 316.658 147.933 314.178 148.046 311.311C148.16 308.42 147.648 305.427 148.238 302.655C148.834 299.854 145.609 294.215 150.787 294.794C154.74 295.236 161.086 296.58 161.097 303.525C161.116 315.628 161.225 327.731 161.296 339.833C144.968 339.833 128.641 339.833 112.313 339.833C112.084 333.629 111.89 327.423 111.61 321.221C111.485 318.451 110.822 315.892 107.293 315.967C103.854 316.041 102.864 318.518 103.1 321.317C103.632 327.63 101.532 333.632 101.252 339.833C95.9881 339.832 90.7211 339.832 85.4541 339.832ZM143.853 322.271C141.761 322.28 140.168 323.202 140.088 325.348C139.99 327.988 141.822 328.95 144.22 328.825C146.335 328.714 147.696 327.562 147.577 325.363C147.457 323.155 145.942 322.284 143.853 322.271Z" fill="#43B6F5" />
        <path d="M101.255 339.832C101.535 333.631 103.635 327.629 103.103 321.316C102.867 318.517 103.857 316.04 107.296 315.966C110.825 315.89 111.488 318.449 111.613 321.22C111.892 327.422 112.087 333.628 112.316 339.832C108.629 339.832 104.942 339.832 101.255 339.832Z" fill="#354148" />
        <path d="M227.662 339.832C227.48 333.572 227.221 327.313 227.156 321.052C227.131 318.63 227.567 316.157 230.821 316.057C234.296 315.95 235.516 318.248 235.274 321.158C234.743 327.525 236.796 333.584 237.142 339.832C233.982 339.832 230.822 339.832 227.662 339.832Z" fill="#363837" />
        <path d="M97.24 109.462C100.235 87.174 107.225 67.71 125.687 53.93C135.28 46.769 146.269 42.782 157.728 41.703C175.506 40.03 193.582 40.179 210.96 44.756C222.947 47.913 231.012 56.343 234.265 68.891C238.51 85.27 239.754 101.973 240.241 118.775C240.316 121.366 239.904 124.008 239.421 126.57C238.82 129.755 237.157 130.747 234.734 127.991C230.299 122.945 225.063 119.215 218.608 117.14C215.893 116.267 214.797 113.631 213.691 111.242C206.027 94.696 192.809 84.024 177.018 75.796C172.372 73.375 169.067 73.889 164.808 76.62C145.974 88.695 126.275 99.204 105.576 107.768C103.193 108.755 100.877 110.142 97.24 109.462ZM117.983 85.193C118.677 84.777 120.282 84.391 120.751 83.444C125.76 73.331 133.272 65.585 142.623 59.438C143.707 58.726 143.917 57.157 143.255 55.85C142.333 54.029 140.79 54.413 139.201 54.779C131.822 56.479 116.094 73.863 115.05 81.344C114.752 83.48 114.828 84.998 117.983 85.193Z" fill="#4D3521" />
        <path d="M169.29 145.827C170.299 145.816 171.308 145.806 172.318 145.795C172.802 146.236 173.286 146.678 173.77 147.119C174.345 170.839 182.927 181.164 207.106 186.4C210.732 187.185 210.469 188.982 210.158 191.31C208.663 202.514 207.194 213.723 205.481 224.895C204.492 231.344 198.674 232.546 193.854 234.005C183.333 237.191 172.415 235.321 161.682 235.405C130.871 235.648 103.656 207.35 104.57 175.204C120.881 189.318 137.659 190.305 154.912 178.23C155.38 179.424 155.847 180.618 156.315 181.812C161.744 189.855 171.005 191.762 178.332 186.294C179.73 185.251 182.033 184.063 180.998 182.155C179.75 179.854 177.982 181.607 176.499 182.656C174.347 184.178 172.065 185.417 169.258 184.819C169.269 171.822 169.279 158.825 169.29 145.827ZM199.145 199.559C185.271 211.446 184.931 211.307 179.061 212.855C176.091 213.638 170.115 211.591 170.661 215.304C171.296 219.623 176.94 216.837 180.16 216.478C191.367 215.229 198.07 209.275 199.145 199.559ZM197.394 220.491C190.462 219.466 185.712 218.821 181.367 223.741C187.153 225.35 191.333 223.416 197.394 220.491Z" fill="#F4D2BF" />
        <path d="M162.988 151.168C163.078 168.626 149.094 182.907 131.692 183.13C114.386 183.351 100.292 169.22 100.153 151.507C100.012 133.543 113.52 119.825 131.354 119.819C148.979 119.813 162.897 133.606 162.988 151.168ZM151.97 156.679C151.705 151.767 149.664 147.557 144.385 147.685C139.66 147.8 138.468 152.461 138.349 156.386C138.215 160.808 139.923 165.175 145.027 165.342C150.274 165.513 151.633 161.237 151.97 156.679ZM131.681 138.156C140.402 137.857 148.886 139.878 157.483 140.653C149.331 135.058 140.61 135.174 131.681 138.156ZM126.989 139.826C126.77 139.755 126.544 139.619 126.337 139.643C126.246 139.653 126.192 139.989 126.121 140.177C126.34 140.249 126.566 140.385 126.774 140.362C126.864 140.352 126.918 140.014 126.989 139.826Z" fill="#F6E9E2" />
        <path d="M183.726 129.636C178.338 130.234 177.814 135.116 176.291 138.709C174.975 141.813 173.115 142.329 170.252 142.269C167.468 142.21 165.446 141.992 164.202 138.713C155.053 114.611 123.795 108.617 106.337 126.485C106.066 126.763 105.397 126.653 104.905 126.718C102.439 118.943 104.841 114.691 112.911 111.547C131.784 104.195 149.442 94.214 166.45 83.214C170.005 80.914 172.697 80.521 176.429 82.647C188.534 89.541 198.756 98.235 205.955 110.383C208.543 114.75 207.577 116.082 202.886 116.88C195.879 118.072 189.198 120.253 184.986 126.715C184.566 127.687 184.146 128.661 183.726 129.636Z" fill="#F3D1BE" />
        <path d="M212.018 182.086C193.132 186.052 174.113 166.775 177.592 147.091C178.037 144.576 179.15 142.179 179.954 139.727C181.592 143.026 184.099 142.078 186.695 141.196C192.255 139.309 197.977 138.82 203.821 139.306C210.33 139.847 213.828 142.5 213.251 149.825C212.407 160.547 211.117 171.285 212.018 182.086ZM203.43 147.556C199.863 147.127 196.663 146.72 193.764 148.324C189.121 150.892 188.194 155.05 189.572 159.814C190.598 163.362 192.705 166.313 196.862 165.379C201.971 164.231 202.782 160.071 202.565 155.51C202.439 152.862 200.426 150.083 203.43 147.556Z" fill="#F6E9E2" />
        <path d="M186.6 256.429C186.908 266.928 178.397 277.622 169.574 277.822C160.658 278.025 152.108 267.955 151.916 257.024C151.785 249.571 156.581 242.062 161.553 241.936C182.144 241.418 186.23 243.782 186.6 256.429Z" fill="#F3D1BE" />
        <path d="M218.18 121.557C231.235 125.267 239.929 136.183 240.463 149.538C241.05 164.213 233.517 175.635 220.066 180.464C217.501 177.589 217.716 173.935 218.291 170.736C221.245 154.307 217.928 137.943 218.18 121.557Z" fill="#B4ACA5" />
        <path d="M249.467 184.324C250.254 197.302 249.068 209.151 251.241 220.833C252.006 224.944 249.354 227.534 245.919 229.651C238.031 234.512 229.031 235.203 220.299 236.887C217.248 237.476 215.485 236.3 217.149 232.969C219.139 228.985 220.573 224.644 223.751 221.361C231.581 213.272 237.248 203.905 240.21 193.046C241.417 188.619 244.992 187.195 249.467 184.324Z" fill="#4D3521" />
        <path d="M218.18 121.557C217.928 137.944 221.246 154.307 218.292 170.737C217.717 173.937 217.502 177.59 220.067 180.465C217.632 182.235 214.899 182.526 212.019 182.087C211.118 171.286 212.408 160.548 213.252 149.827C213.829 142.502 210.331 139.849 203.822 139.308C197.978 138.822 192.255 139.31 186.696 141.198C184.1 142.079 181.593 143.027 179.955 139.729C179.955 139.729 180.117 139.297 180.117 139.296C185.672 138.097 191.068 136.403 196.837 135.879C201.779 135.43 207.772 140.647 211.22 135.431C214.024 131.19 210.781 125.371 210.27 120.248C213.015 120.028 215.76 119.811 218.18 121.557Z" fill="#B0AEAE" />
        <path d="M127.011 231.45C106.82 230.145 99.932 224.271 96.145 205.725C95.309 201.63 94.264 197.57 93.627 193.445C93.342 191.595 92.332 188.748 95.294 188.27C97.588 187.9 98.954 189.964 99.476 192.176C101.428 200.451 105.153 207.779 110.332 214.56C115.078 220.773 121.074 225.698 127.011 231.45Z" fill="#4D3521" />
        <path d="M210.269 120.247C210.779 125.37 214.023 131.189 211.219 135.43C207.77 140.645 201.777 135.429 196.836 135.878C191.068 136.402 185.672 138.096 180.116 139.295C180.271 135.684 184.327 133.53 183.726 129.636C184.146 128.662 184.566 127.688 184.987 126.714C188.104 127.217 190.431 125.587 192.958 124.093C198.261 120.957 203.959 119.092 210.269 120.247Z" fill="#F6E9E2" />
        <path d="M127.577 273.567C129.073 272.199 129.713 271.403 130.533 270.895C144.3 262.371 140.529 259.98 151.2 274.274C153.547 277.418 156.475 280.122 159.041 283.11C161.564 286.048 163.967 289.088 165.37 293.504C152.97 286.963 140.569 280.421 127.577 273.567Z" fill="#42B2EE" />
        <path d="M173.794 293.099C178.534 283.107 186.555 276.819 191.721 268.236C194.432 263.733 197.55 262.889 201.767 266.564C204.31 268.78 207.31 270.472 211.481 273.348C198.278 280.267 186.036 286.683 173.794 293.099Z" fill="#42B2EE" />
        <path d="M212.254 224.982C213.718 213.631 215.347 202.298 216.56 190.921C216.998 186.81 219.406 185.014 222.654 183.596C224.311 182.872 226.078 181.642 227.808 182.902C229.583 184.195 229.065 186.205 228.444 187.955C223.921 200.692 219.183 213.343 212.254 224.982Z" fill="#4D3521" />
        <path d="M156.314 181.813C155.846 180.619 155.379 179.425 154.911 178.231C162.425 169.859 167.495 160.535 166.325 148.799C166.103 146.569 166.737 145.258 169.289 145.827C169.278 158.824 169.268 171.822 169.257 184.819C164.26 186.759 161.39 179.541 156.314 181.813Z" fill="#CBB0A1" />
        <path d="M244.179 78.407C247.772 86.605 249.146 95.365 249.607 104.082C250.243 116.113 249.834 128.202 249.732 140.265C249.714 142.395 250.59 145.979 247.317 145.864C244.215 145.755 245.019 142.195 245.109 140.041C245.492 130.9 246.883 121.849 246.733 112.631C246.546 101.162 244.164 89.904 244.179 78.407Z" fill="#4D3521" />
        <path d="M98.0661 130.995C98.2571 134.899 98.0061 139.304 96.5191 143.58C95.8541 145.493 94.8781 146.968 92.6121 146.41C90.7841 145.96 90.2931 144.317 90.4441 142.706C91.0271 136.489 91.6091 130.266 92.4931 124.088C92.7631 122.198 93.2371 119.27 95.9351 119.692C98.5711 120.104 97.9181 122.957 98.0411 124.95C98.1551 126.772 98.0661 128.606 98.0661 130.995Z" fill="#4D3521" />
        <path d="M94.3229 153.351C98.0459 161.551 97.5929 170.094 96.3479 178.718C90.8199 170.779 94.6109 161.831 94.3229 153.351Z" fill="#D4B8A8" />
        <path d="M245.313 153.799C247.898 166.571 247.211 173.967 243.036 179.84C241.977 170.421 242.146 162.024 245.313 153.799Z" fill="#D4B8A8" />
        <path d="M173.769 147.12C173.285 146.679 172.801 146.237 172.317 145.796C173.393 145.588 173.942 145.958 173.769 147.12Z" fill="#CBB0A1" />
        <path d="M194.231 328.841C192.114 328.636 190.778 327.544 190.907 325.344C191.037 323.126 192.556 322.238 194.643 322.284C197.133 322.339 198.76 323.631 198.381 326.139C198.076 328.159 196.319 329.004 194.231 328.841Z" fill="#354148" />
        <path d="M180.26 318.913C179.908 321.489 178.529 322.5 176.512 322.446C174.199 322.383 172.347 321.297 172.703 318.714C172.983 316.684 174.718 315.891 176.744 316C178.846 316.113 179.961 317.272 180.26 318.913Z" fill="#363837" />
        <path d="M143.853 322.271C145.942 322.284 147.457 323.155 147.576 325.363C147.695 327.562 146.334 328.714 144.219 328.825C141.821 328.951 139.989 327.989 140.087 325.348C140.168 323.202 141.761 322.281 143.853 322.271Z" fill="#354148" />
        <path d="M117.983 85.193C114.828 84.998 114.752 83.48 115.05 81.343C116.094 73.862 131.822 56.479 139.201 54.778C140.79 54.412 142.334 54.028 143.255 55.849C143.917 57.156 143.707 58.724 142.623 59.437C133.272 65.584 125.76 73.331 120.751 83.443C120.282 84.391 118.677 84.776 117.983 85.193Z" fill="#343332" />
        <path d="M199.145 199.559C198.07 209.276 191.367 215.23 180.16 216.479C176.94 216.838 171.297 219.623 170.661 215.305C170.115 211.592 176.091 213.639 179.061 212.856C184.931 211.307 185.27 211.446 199.145 199.559Z" fill="#474442" />
        <path d="M156.314 181.813C161.389 179.541 164.259 186.76 169.258 184.82C172.064 185.418 174.347 184.179 176.499 182.657C177.982 181.608 179.75 179.855 180.998 182.156C182.033 184.065 179.73 185.252 178.332 186.295C171.005 191.763 161.744 189.856 156.314 181.813Z" fill="#474442" />
        <path d="M197.394 220.491C191.333 223.417 187.153 225.351 181.367 223.741C185.712 218.821 190.462 219.465 197.394 220.491Z" fill="#D4B8A8" />
        <path d="M151.97 156.679C151.634 161.237 150.275 165.513 145.028 165.342C139.924 165.176 138.216 160.808 138.35 156.386C138.469 152.461 139.661 147.799 144.386 147.685C149.664 147.557 151.705 151.767 151.97 156.679Z" fill="#B0AEAE" />
        <path d="M131.681 138.156C140.61 135.174 149.332 135.058 157.483 140.653C148.886 139.878 140.402 137.857 131.681 138.156Z" fill="#B0AEAE" />
        <path d="M126.989 139.826C126.918 140.015 126.864 140.352 126.774 140.362C126.566 140.385 126.34 140.249 126.121 140.177C126.192 139.989 126.246 139.653 126.337 139.643C126.545 139.619 126.771 139.755 126.989 139.826Z" fill="#B0AEAE" />
        <path d="M203.43 147.556C200.425 150.082 202.438 152.861 202.565 155.511C202.782 160.072 201.971 164.232 196.862 165.38C192.705 166.314 190.598 163.363 189.572 159.815C188.194 155.051 189.121 150.893 193.764 148.325C196.663 146.721 199.864 147.128 203.43 147.556Z" fill="#B0AEAE" />
    </g>
    <defs>
        <clipPath id="clip0">
            <rect width="340" height="340" fill="white" />
        </clipPath>
    </defs>
</svg>