<svg width="73" height="102" viewBox="0 0 73 102" fill="none" xmlns="http://www.w3.org/2000/svg">
<path fill-rule="evenodd" clip-rule="evenodd" d="M35.9918 45.1429C34.67 45.1429 33.5762 44.051 33.5762 42.7317V23.897C33.5762 22.5777 34.67 21.4858 35.9918 21.4858C37.3136 21.4858 38.4075 22.5777 38.4075 23.897V42.7317C38.4075 44.051 37.3136 45.1429 35.9918 45.1429Z" fill="white"/>
<path fill-rule="evenodd" clip-rule="evenodd" d="M37.3136 101.92C17.1684 101.92 0.760002 85.5418 0.760002 65.4335C0.760002 45.2796 17.1684 28.947 37.3136 28.947C47.0672 28.947 56.2739 32.7233 63.1566 39.638L65.5265 42.0034L55.2259 51.694L50.7594 46.9625L56.0466 42.0034C50.7594 37.7727 44.1963 35.4975 37.3142 35.4975C20.7695 35.4975 7.27847 48.9187 7.27847 65.4781C7.27847 81.9924 20.7243 95.4587 37.3142 95.4587" fill="white"/>
<path fill-rule="evenodd" clip-rule="evenodd" d="M55.6818 83.1764L50.9874 78.6272C54.451 75.0785 56.3656 70.3927 56.3656 65.4336C56.3656 60.2471 54.3147 55.4247 50.5773 51.8307L48.1159 49.4652L50.7594 47.0083L52.993 49.3738L55.1349 47.1901C60.1482 52.0125 62.8829 58.5184 62.8829 65.4788C62.8371 72.0756 60.2851 78.3997 55.6818 83.1764Z" fill="white"/>
<path fill-rule="evenodd" clip-rule="evenodd" d="M37.3136 61.157C34.989 61.157 33.0751 63.068 33.0751 65.3878C33.0751 67.7075 34.9896 69.6185 37.3136 69.6185C39.6376 69.6185 41.5522 67.7075 41.5522 65.3878C41.5522 63.068 39.6382 61.157 37.3136 61.157ZM37.3136 76.1702C31.3885 76.1702 26.5114 71.3478 26.5114 65.3878C26.5114 59.4278 31.3427 54.6054 37.3136 54.6054C43.2846 54.6054 48.1159 59.4278 48.1159 65.3878C48.1159 71.3478 43.2388 76.1702 37.3136 76.1702ZM60.8321 41.9131L41.8259 59.4284L60.8321 41.9131Z" fill="white"/>
<path fill-rule="evenodd" clip-rule="evenodd" d="M44.0594 61.8395L39.6382 57.0629L58.6444 39.5476L63.0656 44.3243L44.0594 61.8395Z" fill="white"/>
<path fill-rule="evenodd" clip-rule="evenodd" d="M65.1616 101.92H36.7209V95.4139H58.5985V89.4996L38.8633 74.6682L42.7829 69.4365L65.1164 86.2241L65.1616 101.92Z" fill="white"/>
<path fill-rule="evenodd" clip-rule="evenodd" d="M58.7354 13.1146L57.5047 14.3431L56.2739 13.1146L57.5047 11.8862L58.7354 13.1146ZM71.7248 2.10528C71.7248 1.05916 70.8589 0.23999 69.8561 0.23999C68.808 0.23999 67.9873 1.10432 67.9873 2.10528C67.9873 3.15139 68.8533 3.97056 69.8561 3.97056C70.8589 4.01629 71.7248 3.15139 71.7248 2.10528Z" fill="white"/>
<path fill-rule="evenodd" clip-rule="evenodd" d="M24.6427 51.7397C23.3209 51.7397 22.227 50.6478 22.227 49.3285V23.897C22.227 22.5777 23.3209 21.4858 24.6427 21.4858C25.9645 21.4858 27.0583 22.5777 27.0583 23.897V49.3285C27.0583 50.6478 25.9645 51.7397 24.6427 51.7397Z" fill="white"/>
<path d="M70.0687 23.0702L67.4584 25.6758L70.0687 28.2813L72.6791 25.6758L70.0687 23.0702Z" fill="white"/>
</svg>
