<svg width="76" height="106" viewBox="0 0 76 106" fill="none" xmlns="http://www.w3.org/2000/svg">
<path d="M54.7019 33.6652C50.5519 39.9224 46.5371 45.9917 42.505 52.0498C36.6512 60.8447 30.8086 69.6474 24.9002 78.4047C23.9557 79.8048 23.8016 80.8756 24.7282 82.4188C27.6807 87.335 31.3166 91.3228 36.9654 93.0782C44.2611 95.3458 50.9242 93.9839 57.0324 89.5811C60.3625 87.1806 62.993 84.0621 65.3419 80.6992C65.6223 80.2973 65.9134 79.8531 66.3059 79.5907C67.2509 78.9581 68.2943 78.9074 69.2144 79.6163C70.1008 80.2985 69.7806 81.1911 69.3289 81.9662C64.241 90.6902 57.1628 96.9009 47.1264 98.8924C36.5042 101 26.6479 98.8185 17.7604 92.5141C16.6796 91.7473 16.0897 91.6042 15.2579 92.9333C12.9654 96.5974 10.4872 100.143 8.07309 103.73C7.7986 104.138 7.47016 104.509 7.15832 104.89C6.37752 105.841 5.4586 105.841 4.55449 105.15C3.65809 104.466 3.39012 103.554 4.04937 102.545C5.77222 99.9096 7.51699 97.289 9.25762 94.6655C10.1119 93.3781 10.8423 91.9733 11.8686 90.8428C13.3442 89.218 12.8503 88.0374 11.5615 86.6344C5.73902 80.2925 2.62415 72.6949 1.3501 64.2106C-0.00754595 55.1736 0.494604 46.275 3.63497 37.7072C9.16336 22.6265 19.348 12.5395 35.3872 9.63269C44.232 8.02993 52.899 9.12765 60.8095 13.9157C61.8849 14.5662 62.524 14.6181 63.3025 13.3731C65.563 9.7585 67.9926 6.25127 70.3575 2.70349C70.597 2.34454 70.8163 1.96531 71.1015 1.64571C71.9232 0.723292 72.7176 -0.42273 74.1452 0.713751C75.4697 1.76854 75.1323 3.03263 74.3735 4.18938C72.0702 7.70198 69.6988 11.1687 67.3653 14.661C65.5891 17.3197 65.5879 17.3346 67.7851 19.5611C71.2936 23.1172 72.2392 27.498 71.5058 32.2478C70.9314 35.9685 68.6489 37.8915 64.4953 38.4758C62.0195 38.824 59.6155 38.4639 57.3715 37.1658C56.0578 36.4074 55.536 35.0938 54.7019 33.6652ZM21.7817 75.3113C22.0793 75.1634 22.154 75.1515 22.1825 75.108C33.3241 58.403 44.4834 41.71 55.5829 24.9758C57.6733 21.8239 57.1581 18.56 54.5045 15.8577C53.4865 14.8208 52.2955 14.0546 50.9764 13.5585C40.6026 9.65952 29.6057 13.0374 23.9379 23.5901C19.9362 31.0416 18.853 39.1478 18.4267 47.3989C18.1386 52.971 18.4617 58.5491 19.1749 64.08C19.6623 67.8675 20.4276 71.6198 21.7817 75.3113Z" fill="white"/>
</svg>
