<svg width="76" height="75" viewBox="0 0 76 75" fill="none"
    xmlns="http://www.w3.org/2000/svg">
    <path d="M41.0611 0.359863C43.9452 1.00527 46.8685 1.51518 49.7036 2.33237C53.0365 3.29292 56.1026 4.88556 58.859 6.86835C55.6483 10.0966 52.5157 13.2456 49.3588 16.42C36.8602 10.0942 24.6846 15.2997 18.801 23.2085C12.3421 31.8897 12.5036 43.8585 19.1881 52.3697C25.3458 60.2101 37.3974 64.7522 49.3485 58.6435C52.5139 61.804 55.661 64.9463 58.899 68.1788C55.4572 70.6382 51.6362 72.3924 47.5079 73.4243C45.1731 74.008 42.7711 74.3237 40.3994 74.7605C38.6355 74.7605 36.8723 74.7605 35.1085 74.7605C34.8018 74.6716 34.5 74.5397 34.1867 74.4992C19.2389 72.5781 8.85981 64.613 3.20783 50.6984C1.92912 47.5482 1.52627 44.0429 0.719971 40.701C0.719971 38.6069 0.719971 36.5128 0.719971 34.4181C0.808888 34.1115 0.947405 33.8096 0.980673 33.4963C2.5346 18.8117 12.7667 6.34392 26.9275 2.05473C29.4813 1.2817 32.1585 0.914536 34.7788 0.359863C36.8729 0.359863 38.967 0.359863 41.0611 0.359863Z" fill="white"/>
    <path d="M75.1199 40.7012C74.4739 43.5774 74.0892 46.5456 73.1136 49.3056C71.9758 52.526 70.322 55.5637 68.8734 58.7224C65.4122 55.2582 62.282 52.1243 59.0659 48.9052C62.8875 41.4138 62.8875 33.7113 58.9927 26.0668C62.1598 22.9402 65.2876 19.8523 68.5268 16.6543C68.7161 16.8999 69.0264 17.2441 69.2714 17.63C72.3526 22.4841 74.2798 27.7453 74.8586 33.4838C74.8907 33.8008 75.0298 34.1068 75.1193 34.4178C75.1199 36.513 75.1199 38.6071 75.1199 40.7012Z" fill="white"/>
</svg>
